Coordinates
version=1
nRows=11
nColumns=36
inDegrees=yes

Units are S.I. units (second, meters, Newtons, ...)
If the header above contains a line with 'inDegrees', this indicates whether rotational values are in degrees (yes) or radians (no).

endheader
time	pelvis_tilt	pelvis_list	pelvis_rotation	pelvis_tx	pelvis_ty	pelvis_tz	hip_flexion_r	hip_adduction_r	hip_rotation_r	knee_angle_r	knee_angle_r_beta	ankle_angle_r	subtalar_angle_r	mtp_angle_r	hip_flexion_l	hip_adduction_l	hip_rotation_l	knee_angle_l	knee_angle_l_beta	ankle_angle_l	subtalar_angle_l	mtp_angle_l	lumbar_extension	lumbar_bending	lumbar_rotation	arm_flex_r	arm_add_r	arm_rot_r	elbow_flex_r	pro_sup_r	arm_flex_l	arm_add_l	arm_rot_l	elbow_flex_l	pro_sup_l
     14.96666670	     -1.03378501	      5.03399907	     -4.17334857	      0.99999336	      0.92602282	      0.76745168	      5.78942934	     -5.02879373	      7.12498962	     61.47412508	      1.07292589	    -13.19697537	    -15.34613112	     -7.49999987	     16.15573755	      4.73224339	     -1.05405819	     22.50590858	      0.39280221	      7.97071917	     -6.28066193	     -7.49999987	    -12.23159351	     -8.64222615	      8.91891146	     11.10255521	    -11.63367746	     20.10816605	     29.43317426	     73.22706481	      0.49561142	     -8.91123311	     -0.52712301	     16.45537558	     71.64230600
     14.98333330	     -0.71423848	      4.25023463	     -4.14587342	      1.00021982	      0.93262348	      0.76790035	      7.91295691	     -4.00165927	      6.44321320	     62.72822277	      1.09481402	    -12.90777149	    -16.26165889	     -7.49999987	     13.91282160	      4.16411572	     -0.39493838	     21.54749886	      0.37607480	      8.30205606	     -6.39659344	     -7.49999987	    -12.82077314	     -7.68048539	      8.27681469	     10.42852409	    -11.63450193	     19.72480052	     27.94051507	     73.68652624	      1.88594050	     -9.21232151	      0.75748693	     17.25771042	     71.78922215
     15.00000000	     -0.32635808	      3.38088918	     -4.11880601	      0.99910372	      0.93719055	      0.76808073	      9.96105526	     -2.87148683	      5.91040214	     63.02696057	      1.10002798	    -11.14948703	    -17.31652323	     -7.49999987	     11.41870434	      3.46502210	      0.10369601	     20.31220019	      0.35451477	      8.73917759	     -6.16686867	     -7.49999987	    -13.59352414	     -6.60407968	      7.55052173	      9.78122970	    -11.82004099	     19.33093980	     26.91711897	     73.93752835	      3.30897897	     -9.44137067	      1.69818165	     18.42693907	     71.88552123
     15.01666670	     -0.15384419	      2.60450247	     -3.98460019	      0.99801785	      0.93911368	      0.76718353	     12.38968715	     -1.92752608	      5.36275033	     62.61826506	      1.09289490	     -7.69815168	    -18.18202299	     -7.49999987	      9.09360256	      2.87374768	      0.61072629	     18.97820507	      0.33123216	      9.12860400	     -6.06573841	     -7.49999987	    -14.13088661	     -5.53622930	      7.10726566	      8.64246930	    -11.86937871	     16.13422618	     26.40182160	     79.49589969	      5.09007223	     -9.95752986	      5.03292710	     19.17647436	     72.59766763
     15.03333330	      0.13131289	      1.86968528	     -3.84920660	      0.99676794	      0.93925839	      0.76533055	     14.65736147	     -1.18735156	      4.81708016	     61.39930030	      1.07161995	     -3.87495126	    -18.68156914	     -7.49999987	      6.68524511	      2.33097869	      1.02629137	     17.71446769	      0.30917579	      9.58572541	     -5.87516030	     -7.49999987	    -14.81679850	     -4.45154786	      5.97982313	      8.06956005	    -12.05293110	     15.85183170	     25.93540453	     78.45367566	      6.17337930	    -10.37013467	      5.08154298	     20.79010727	     71.96192474
     15.05000000	      0.27403884	      1.23416825	     -3.73190089	      0.99413414	      0.93831809	      0.76303453	     16.89404641	     -0.66945278	      4.31993376	     59.43386509	      1.03731663	     -0.78428322	    -18.75792056	     -7.49999987	      4.58193055	      1.86760463	      1.38158828	     16.66749814	      0.29090272	     10.04649354	     -5.73700770	     -7.49999987	    -15.24023558	     -3.39553053	      4.98703280	      7.37489945	    -12.27009784	     15.45373544	     25.44802244	     78.48956793	      7.23208811	    -10.82552720	      5.21823255	     22.29973992	     72.12123646
     15.06666670	      0.11714449	      0.60770458	     -3.65931278	      0.99035585	      0.93736264	      0.76148571	     19.06818974	     -0.18674689	      3.91361023	     56.66245623	      0.98894642	      1.03433872	    -18.89176831	     -7.49999987	      3.01378297	      1.34887854	      1.59175418	     15.91878503	      0.27783521	     10.49196363	     -5.68280518	     -7.49999987	    -15.25595839	     -2.33582650	      4.08767367	      6.46597410	    -12.53745970	     15.14770182	     25.08604006	     78.38339605	      8.31048975	    -11.21899970	      5.20454493	     23.53152249	     72.14507063
     15.08333330	      0.32237364	      0.08644388	     -3.67995625	      0.98688863	      0.93734228	      0.76120625	     20.46065263	      0.12250091	      3.58686357	     53.15484552	      0.92772707	      2.13449400	    -18.71315616	     -7.49999987	      1.18483502	      0.94147633	      1.63839375	     15.25347009	      0.26622328	     10.88916781	     -5.68339738	     -7.49999987	    -15.93576949	     -1.43043118	      3.10445820	      5.76651346	    -12.64780084	     14.26037944	     24.91385654	     76.86468624	      9.30798826	    -11.75679467	      5.01270052	     25.79621486	     71.36032896
     15.10000000	      0.04952248	     -0.38154521	     -3.70198847	      0.98524497	      0.93697074	      0.76108809	     22.02402242	      0.31730204	      3.08086398	     48.91599016	      0.85374509	      2.96474034	    -17.87714069	     -7.49999987	     -0.06238416	      0.52451713	      1.52491828	     14.67353761	      0.25610154	     11.35761048	     -5.42708210	     -7.49999987	    -15.87490178	     -0.53448493	      2.11967104	      5.08378761	    -12.81698523	     13.71788828	     24.27874320	     76.81241029	     10.56286850	    -12.24624038	      5.28342547	     27.22578309	     71.64432623
     15.11666670	      0.07796161	     -0.66526113	     -3.77744321	      0.98396551	      0.93664802	      0.76018670	     23.02200851	      0.27464556	      2.61473869	     44.00017297	      0.76794789	      3.43372361	    -16.80923115	     -7.49999987	     -1.69079038	      0.30580380	      1.50238344	     13.93577128	      0.24322509	     11.59205240	     -5.24539743	     -7.49999987	    -16.37315052	      0.07320118	      1.52853980	      4.23945997	    -12.62574823	      9.87313162	     23.83549182	     79.81526135	     12.24270512	    -12.99235033	      6.37021547	     29.06152412	     76.42209260
     15.13333330	     -0.04065335	     -0.85340081	     -3.91012518	      0.98210133	      0.93580983	      0.75842632	     23.99098778	      0.09276901	      2.17876160	     38.45945131	      0.67124405	      3.40253918	    -15.45230874	     -7.49999987	     -3.18991053	      0.16809236	      1.61689965	     13.13638081	      0.22927310	     11.68138801	     -5.22541648	     -7.49999987	    -16.72859046	      0.60286936	      0.57488307	      3.92660389	    -12.77610981	      9.05885458	     23.16661084	     78.02505278	     13.45673730	    -13.63847709	      6.20525717	     31.39452983	     75.15943574
